<?xml version="1.0" encoding="UTF-8"?>
<svg xmlns="http://www.w3.org/2000/svg" xmlns:xlink="http://www.w3.org/1999/xlink" width="50px" height="50px" viewBox="0 0 50 50" version="1.1">
<g id="surface1">
<path style=" stroke:none;fill-rule:nonzero;fill:rgb(0%,32.156864%,100%);fill-opacity:1;" d="M 41.867188 21.621094 C 41.867188 19.414062 41.4375 17.304688 40.664062 15.371094 C 40.359375 14.230469 39.804688 13.253906 39.109375 12.390625 C 36.09375 7.78125 30.890625 4.734375 24.980469 4.734375 C 15.671875 4.734375 8.09375 12.304688 8.09375 21.621094 L 8.09375 43.574219 C 8.09375 44.40625 8.691406 45.109375 9.503906 45.246094 C 10.3125 45.382812 11.105469 44.914062 11.378906 44.140625 C 11.828125 42.871094 13.351562 41.882812 14.855469 41.882812 C 16.359375 41.882812 17.882812 42.882812 18.328125 44.140625 C 18.566406 44.8125 19.210938 45.265625 19.921875 45.265625 C 20.636719 45.265625 21.28125 44.8125 21.515625 44.140625 C 21.964844 42.871094 23.488281 41.882812 24.992188 41.882812 C 26.496094 41.882812 28.019531 42.882812 28.46875 44.140625 C 28.703125 44.8125 29.347656 45.265625 30.058594 45.265625 C 30.773438 45.265625 31.417969 44.8125 31.652344 44.140625 C 32.101562 42.871094 33.625 41.882812 35.128906 41.882812 C 36.632812 41.882812 38.15625 42.882812 38.605469 44.140625 C 38.847656 44.824219 39.492188 45.265625 40.195312 45.265625 C 40.898438 45.265625 40.382812 45.265625 40.480469 45.246094 C 41.289062 45.097656 41.886719 44.394531 41.886719 43.574219 L 41.886719 21.621094 Z M 26.828125 22.65625 L 26.828125 27.382812 L 35.039062 27.382812 L 35.039062 34.394531 C 33.542969 35.839844 27.976562 37.050781 24.746094 37.050781 C 21.511719 37.050781 17.324219 35.5 15.507812 33.359375 C 13.90625 31.472656 12.78125 28.90625 12.539062 25.671875 L 12.539062 22.128906 C 12.539062 15.222656 18.125 9.609375 25 9.609375 C 31.875 9.609375 37.460938 15.222656 37.460938 22.128906 L 37.441406 22.128906 L 37.441406 22.65625 L 26.824219 22.65625 Z M 26.828125 22.65625 "/>
</g>
</svg>
